<svg xmlns="http://www.w3.org/2000/svg" width="200" height="57.931" viewBox="0 0 52.917 15.328"><path fill="#fff" d="M14.507 14.508H0V0h14.507Z"/><path fill="#f15a22" d="M5.834 9.792 7.38 8.544c-.26-.326-.505-.654-.737-.993C4.854 4.963 3.794 2.331 4.56.001H0v2.514zm2.438-3.76c.097-.822.346-2.37 1.853-3.522 1.304-.993 2.937-1.184 4.382-.57V0H6.458c-.53 2.36.864 4.954 1.814 6.032"/><path fill="#f15a22" d="m10.225 3.665-.006.004c-1.515 1.23-1.142 3.162.268 4.894 1.086 1.337 2.54 2.276 4.02 1.564V4.424c-1.33-1.363-2.927-1.862-4.282-.76M0 5.49v9.016h.002l4.39-3.55zm7.983 3.77-1.555 1.27.57.71c.825 1.03 2.031 2.817 3.525 2.334l.055.067-1.061.865h4.99v-3.43c-2.567 1.395-4.775.125-6.524-1.817M5.574 12.43l-.59-.735a975 975 0 0 1-3.515 2.811h5.584C6.69 13.736 6.03 13 5.574 12.43"/><path fill="#006885" d="M26.59 6.06c1.337-.234 2.207-1.388 2.207-2.861C28.797 1.236 27.098 0 24.19 0h-5.754v.067c1.175.645 1.148 1.685 1.148 2.68v8.992c0 1.011.027 2.063-1.148 2.697v.065h2.77c2.708 0 4.785.047 6.334-.682 1.647-.774 2.644-2.162 2.644-3.855 0-2.16-1.608-3.486-3.594-3.904m-4.749-4.722 1.822.03c1.35 0 2.731.661 2.731 2.182 0 1.808-1.222 2.29-2.963 2.29l-1.59.003V5.84zm1.756 11.673-1.756.002V7.215l1.888-.01c2.196 0 4.01.816 4.01 2.955 0 2.094-1.904 2.85-4.142 2.85m10.999-1.27c0 1.237-.022 2.116 1.146 2.803v.062h-3.9v-.062c1.166-.687 1.146-1.566 1.146-2.803V2.928c0-1.228.02-2.202-1.145-2.86V0h3.238v.022c.086.263.23.41.33.553.103.137.307.439.307.439l7.429 10.012V2.842c0-1.233.02-2.116-1.145-2.774V0h3.877v.068c-1.145.658-1.145 1.54-1.145 2.774v12.486c-.708-.282-2.683-1.926-4.09-3.818-2.524-3.39-6.048-8.105-6.048-8.105zm14.9-9.111c0-1.014-.017-1.917-1.144-2.56V0h4.565v.068c-1.131.624-1.141 1.567-1.141 2.561v9.269c0 .99-.027 1.994 1.14 2.64v.065h-4.564v-.065c1.174-.655 1.144-1.641 1.144-2.634z"/></svg>