<svg xmlns="http://www.w3.org/2000/svg" width="1084pt" height="166pt" viewBox="0 0 1084 166"><path fill="#790008" d="M0 0h165.25c0 55.08 0 110.16-.01 165.24-55.08.01-110.16 0-165.24.01zm22.01 31.02c12.86 17.22 25.91 34.29 38.83 51.46-12.81 17.24-25.94 34.24-38.77 51.47 29.33.12 58.65 0 87.98.06 13.2-17.08 25.92-34.53 39.21-51.55l-.25.01C136.06 65.3 123.05 48.17 110.12 31c-29.37.02-58.74-.03-88.11.02m199.24 17.27c9.84-12.27 24.97-20.15 40.69-21.04 14.89-1.15 30.04 4.08 41.23 13.93-5.05 5.09-10.11 10.15-15.2 15.2-8.61-6.98-20.57-9.73-31.29-6.67-11.96 3.14-21.56 13.36-24.23 25.4-3.26 13.07 1.45 27.92 12.2 36.2 12.28 10.05 31.33 9.54 43.4-.61 5.06 5.07 10.23 10.05 15.16 15.26-9.99 8.68-22.98 13.9-36.24 14.06-16.71.46-33.45-6.89-44.36-19.56-7.63-8.69-12.49-19.79-13.58-31.31-1.53-14.52 2.94-29.57 12.22-40.86m102-18.04c7.25 0 14.49.01 21.74-.01.02 35.59 0 71.17.01 106.76-7.25 0-14.5.01-21.75-.01.01-35.58 0-71.16 0-106.74M371 30c7.05-.02 14.1.04 21.16-.03 12.57 22.61 24.82 45.42 37.55 67.95 12.34-22.68 24.86-45.25 37.2-67.93 7.11.02 14.22 0 21.34.01-.04 35.6.07 71.19-.06 106.79-7.24-.11-14.47.02-21.71-.07.05-21.07 0-42.13.03-63.19-12.47 21.29-24.35 42.94-37.04 64.09-12.12-21.43-24.57-42.67-36.74-64.07.04 21.07.01 42.13.02 63.2-7.25 0-14.49-.01-21.74.01-.03-35.59 0-71.17-.01-106.76m142.01.24c14.68.02 29.35 0 44.03.01 6.79.13 13.76 1.56 19.56 5.25 14.01 8.56 17.23 30.79 5.53 42.57-1.5 1.6-3.28 2.92-5.05 4.2 6.67 3.51 11.79 10.02 13.03 17.52 1.81 10.12-.5 21.74-8.35 28.88-6.26 5.99-15.16 8.15-23.6 8.26-15.05.16-30.11.03-45.16.07.01-35.59-.02-71.17.01-106.76m21.74 19.51c-.01 7.75 0 15.5 0 23.25 6.4-.02 12.81.03 19.22-.01 3.73-.07 7.76-.85 10.49-3.6 3.88-4.12 3.98-11.07.53-15.49-2.65-3.19-7.03-4.18-11-4.16-6.42.01-12.83.01-19.24.01m0 42.76c0 8.24-.01 16.49 0 24.74 7.07.01 14.14-.01 21.21.02 3.31.1 6.79-.83 9.27-3.12 4.94-4.76 5.03-13.63-.01-18.35-2.72-2.58-6.62-3.25-10.23-3.3-6.75-.01-13.5 0-20.24.01m100.49-62.5c3.63.04 7.26-.13 10.89.05 1.66 1.29 2.59 3.31 3.92 4.93 19.92 27.21 39.68 54.54 59.71 81.67-.02-28.89 0-57.77-.01-86.66H721v106.5c-3.79 0-7.58-.01-11.36.02-21.04-28.94-42.07-57.89-63.14-86.81v86.78c-3.78-.01-7.56.08-11.32-.08.17-35.46.03-70.93.06-106.4M749 30h11.25c0 35.5-.01 70.99 0 106.48-3.75.03-7.5.01-11.24.02-.03-35.5 0-71-.01-106.5m28.57 107.22c12.97-35.51 25.95-71.02 39.01-106.49 5.2.05 10.39.01 15.59.02C844.54 66 856.89 101.27 869.3 136.5c-4.42-.01-8.84.01-13.25-.01-3.29-9.43-6.63-18.85-10.02-28.25-14.69.01-29.37.01-44.05.01-3.28 9.65-6.43 19.36-9.72 29.01-4.9-.04-9.8.02-14.69-.04m28.91-41.74c11.69.05 23.39.01 35.08.02-5.86-17.08-11.64-34.19-17.4-51.3-5.87 17.1-11.86 34.16-17.68 51.28m87.79-47.3c8.88-9.14 20.76-15.71 33.57-16.89 15.79-1.59 31.51 4.27 44.28 13.26-2.49 3.23-5.11 6.35-7.58 9.59-4.25-6.05-11.78-8.31-18.57-10.14-11.81-3.25-25.21-1.49-35.18 5.84-9.01 6.8-15.03 17.13-17.42 28.08-1.35 11.32-.23 23.68 6.49 33.26 2.31 3.62 5.99 5.95 9.14 8.76 6.68 5.45 15.44 7.92 23.98 7.84 10.51.1 20.91-2.59 30.52-6.72-.01-10.94.02-21.88-.01-32.82q-12.495.015-24.99 0c0-3.32 0-6.64-.01-9.96 11.83-.07 23.66 0 35.5-.04.02 16.92 0 33.83.01 50.75-11.29 6.3-24.23 8.94-36.97 10.21-13.49.28-27.58-3.18-38.08-11.99-10.26-8.43-16.25-21.26-18.01-34.26-1.35-15.82 2.67-32.67 13.33-44.77m97.77 88.93c13.03-35.43 26-70.88 38.93-106.35 5.2-.03 10.4.03 15.61-.05 11.95 33.65 23.63 67.4 35.54 101.07.56 1.51.87 3.09 1 4.71-4.19.02-8.36 0-12.53.02-3.39-9.4-6.69-18.84-10.03-28.25-14.74-.02-29.48-.03-44.21.01-3.16 9.67-6.44 19.3-9.62 28.96-4.9-.03-9.8.16-14.69-.12m46.54-92.84c-5.8 17.11-11.85 34.13-17.6 51.26 11.65-.06 23.31-.02 34.96-.02-5.67-17.12-11.55-34.17-17.36-51.24"/><path fill="#fff" d="M22.01 31.02c29.37-.05 58.74 0 88.11-.02 12.93 17.17 25.94 34.3 38.89 51.47-29.39.06-58.78.03-88.17.01-12.92-17.17-25.97-34.24-38.83-51.46"/><path fill="#ed3024" d="M60.84 82.48c29.39.02 58.78.05 88.17-.01l.25-.01c-13.29 17.02-26.01 34.47-39.21 51.55-29.33-.06-58.65.06-87.98-.06 12.83-17.23 25.96-34.23 38.77-51.47"/></svg>