<?xml version="1.0" encoding="utf-8"?>
<!-- Generator: Adobe Illustrator 27.8.1, SVG Export Plug-In . SVG Version: 6.00 Build 0)  -->
<svg version="1.1" id="Layer_1" xmlns="http://www.w3.org/2000/svg" xmlns:xlink="http://www.w3.org/1999/xlink" x="0px" y="0px"
	 viewBox="0 0 109.2 109.2" style="enable-background:new 0 0 109.2 109.2;" xml:space="preserve">
<style type="text/css">
	.st0{fill:#008CEB;}
	.st1{fill:#FEFEFE;}
</style>
<circle class="st0" cx="54.6" cy="54.6" r="54.6"/>
<path class="st1" d="M86.4,54.8v15.4c0,1-0.4,1.2-1.3,0.7c-1.1-0.7-2.3-1.3-3.5-1.8c-3.6-1.5-7.6-2-11.5-1.5
	c-4.3,0.6-8.4,1.6-12.4,3.1c-4,1.3-7.9,2.8-12,3.9c-3.4,1-6.9,1.5-10.4,1.4c-3.9-0.2-7.7-1.3-11-3.4c-0.8-0.5-1.3-1.4-1.3-2.4
	c0-10.1,0-20.1,0-30.2c0-0.5,0-1.1,0.4-1.3s0.9,0.2,1.3,0.4c3.6,2.4,7.8,3.7,12.1,3.6C40,42.6,43,42,45.9,41c4.2-1.3,8.2-3,12.3-4.5
	c3.2-1.2,6.4-2.2,9.8-3c5.8-1.3,11.8-0.2,16.7,3.1c1.1,0.7,1.8,1.9,1.8,3.3C86.5,44.9,86.5,49.9,86.4,54.8L86.4,54.8z"/>
</svg>
