<svg xmlns="http://www.w3.org/2000/svg" xmlns:xlink="http://www.w3.org/1999/xlink" width="92" height="92" viewBox="0 0 92 92"><title>logo_header</title><defs><path id="a" d="M0 .316h91.683v91.367H0z"/></defs><g fill="none" fill-rule="evenodd"><g transform="translate(0 .002)"><mask id="b" fill="#fff"><use xlink:href="#a"/></mask><path fill="#e82529" d="M83.075 91.683H8.608C3.874 91.683 0 87.823 0 83.104V8.894C0 4.176 3.874.316 8.608.316h74.467c4.735 0 8.608 3.86 8.608 8.578v74.21c0 4.719-3.873 8.579-8.608 8.579" mask="url(#b)"/></g><path fill="#fefefe" d="M19.78 17.522h4.345c.33 0 .584.292.537.618l-2.017 13.946a.89.89 0 0 0 .884 1.017h7.62c.217 0 .383.192.351.405l-.591 4.006a.425.425 0 0 1-.421.362h-8.616c-2.563 0-5.021-2.094-4.66-4.623l2.03-15.261a.54.54 0 0 1 .539-.47m14.484 5.564L32.277 37.31a.376.376 0 0 0 .373.427h4.203a.6.6 0 0 0 .594-.515l1.969-13.99a.54.54 0 0 0-.536-.609H34.8a.54.54 0 0 0-.535.464m8.67 13.558c-1.297-.046-1.903.359-2.669.814.185-1.282 1.633-11.275 1.765-11.89.14-.654.267-1.745.845-2.296.676-.647 1.724-1.017 6.936-1.033 5.321-.018 6.352 3.799 6.07 6.278-.241 2.122-1.033 7.366-1.256 8.831a.455.455 0 0 1-.45.387h-4.11a.493.493 0 0 1-.491-.562c.208-1.465.765-5.37.954-6.504.235-1.403.423-2.947.047-3.556-.375-.609-1.502-1.075-3.662-.701l-1.597 11.253s-1.027-.972-2.382-1.02M60.34 16.714h4.559c.17 0 .3.15.276.317l-2.837 20.48a.31.31 0 0 1-.305.266h-4.501a.307.307 0 0 1-.306-.35l2.836-20.472a.28.28 0 0 1 .277-.241m3.528 12.34 5.153-6.013c.162-.19.4-.299.65-.299h4.523c.327 0 .499.386.28.627l-5.268 5.827 4.816 10.322a.57.57 0 0 1-.52.812h-4.088a.55.55 0 0 1-.497-.317zM40.296 18.77c-.368 1.55-1.769 2.704-3.235 2.704s-2.59-1.257-2.221-2.806 1.582-2.806 3.322-2.806c1.466 0 2.503 1.359 2.134 2.909m4.634 22.59c-.368 1.55-1.768 2.703-3.235 2.703s-2.59-1.256-2.221-2.805 1.583-2.806 3.322-2.806c1.466 0 2.503 1.359 2.135 2.908M66.985 59.88c-.31 1.532-1.726 2.671-3.267 2.67-1.542 0-2.786-1.243-2.476-2.774s1.525-2.772 3.354-2.771c1.541 0 2.7 1.344 2.389 2.876m-38.808-7.628h-2.76a.145.145 0 0 1-.136-.197l2.402-6.077c.046-.116.217-.091.229.033l.54 5.942c.014.16-.113.3-.275.3m6.687 7.63-3.08-18.373a1.67 1.67 0 0 0-1.65-1.392h-3.09c-.943 0-1.8.549-2.19 1.403l-8.297 18.385a.402.402 0 0 0 .37.566l4.31-.025a.74.74 0 0 0 .677-.448l1.433-3.36a.25.25 0 0 1 .229-.151h5.217c.128 0 .236.097.248.224l.311 3.179c.036.37.349.652.722.652h4.229a.566.566 0 0 0 .56-.66"/><path fill="#fefefe" d="m32.807 63.212.996 3.066c.179.504.314.616.664.543 1.257-.265 4.297-1.16 5.783-3.164 1.939-2.614 2.205-7.234 2.547-9.582.282-1.934.899-6.696 1.107-8.314a.487.487 0 0 0-.484-.548h-3.865a.68.68 0 0 0-.677.588c-.311 2.286-1.434 10.505-1.63 11.644-.228 1.326-.273 3.236-2.241 4.376-.982.568-1.486.677-1.875.857-.197.092-.42.191-.325.534m21.27-7.077s-2.016.683-2.983-.04-1.048-2.21-.484-4.339 1.975-2.49 2.58-2.53 1.742.244 1.742.244zm5.58-10.372c-1.303-.325-3.494-1.039-7.016-.782-3.25.238-6.92 1.736-7.607 8.129s2.245 7.626 6.461 7.81c3.09.133 5.514-.714 6.59-1.176a1.16 1.16 0 0 0 .69-.908l1.557-12.31c.061-.488-.184-.641-.674-.763m3.006 9.204 1.134-11.787c.04-.423.396-.595.822-.595h3.913c.364 0 .519.276.418.727l-2.388 11.803a.495.495 0 0 1-.485.392h-2.922a.494.494 0 0 1-.492-.54M16.877 76.702c.775.426 1.68.55 2.541.347 3.431-.81 11.025-2.991 27.088-5.305 20.18-2.907 35.081-2.895 35.081-2.895l.04-.024s-13.207-1.808-34.882.301-33.773 5.425-33.773 5.425z"/></g></svg>