<svg xmlns="http://www.w3.org/2000/svg" width="221.748" height="65.299" viewBox="0 0 221.748 65.299"><defs><linearGradient id="a" x1="0" x2="1" y1="0" y2="0" gradientTransform="rotate(24.8 -1725.87 625.862)scale(127.50913 -127.50913)" gradientUnits="userSpaceOnUse" spreadMethod="pad"><stop offset="0" stop-color="#fdb913"/><stop offset=".225" stop-color="#ffcb05"/><stop offset=".393" stop-color="#faa61a"/><stop offset=".528" stop-color="#ffcb05"/><stop offset=".646" stop-color="#faa61a"/><stop offset=".764" stop-color="#ffcb05"/><stop offset="1" stop-color="#ffcb05"/></linearGradient></defs><path fill="#003d79" d="M.729 44.687c0-3.19-.056-5.87-.229-8.262h6.041l.287 4.108h.168c1.365-2.168 3.873-4.736 8.547-4.736 3.648 0 6.495 2.056 7.69 5.128h.117c.968-1.537 2.105-2.676 3.415-3.471 1.539-1.082 3.309-1.657 5.585-1.657 4.615 0 9.285 3.133 9.285 12.028v16.349H34.8V48.847c0-4.612-1.595-7.35-4.957-7.35-2.393 0-4.162 1.71-4.9 3.706-.17.677-.342 1.537-.342 2.33v16.641h-6.837V48.102c0-3.867-1.536-6.605-4.788-6.605-2.616 0-4.382 2.05-5.015 3.987-.282.683-.397 1.483-.397 2.278v16.412H.729zm67.543 12.822c0 2.505.112 4.952.396 6.665h-6.325l-.455-3.075h-.173c-1.71 2.167-4.616 3.7-8.198 3.7-5.588 0-8.72-4.041-8.72-8.26 0-7.013 6.205-10.539 16.466-10.484V45.6c0-1.824-.744-4.844-5.644-4.844-2.736 0-5.584.857-7.464 2.05L46.79 38.25c2.051-1.255 5.64-2.453 10.025-2.453 8.891 0 11.458 5.647 11.458 11.682zm-6.84-6.891c-4.96-.117-9.685.965-9.685 5.18 0 2.736 1.77 3.99 3.988 3.99 2.788 0 4.843-1.828 5.47-3.82a5.1 5.1 0 0 0 .227-1.537zm11.681-5.931c0-3.19-.06-5.87-.224-8.262h6.147l.342 4.165h.173c1.195-2.167 4.217-4.793 8.83-4.793 4.845 0 9.857 3.133 9.857 11.912v16.465H91.23V48.509c0-3.991-1.485-7.012-5.3-7.012-2.788 0-4.73 1.993-5.468 4.103-.227.627-.285 1.48-.285 2.275v16.299h-7.065zm55.506-19.407v31.087c0 2.848.117 5.928.228 7.807h-6.263l-.285-4.385h-.117c-1.652 3.076-5.015 5.01-9.057 5.01-6.611 0-11.849-5.64-11.849-14.182-.06-9.29 5.75-14.82 12.418-14.82 3.815 0 6.55 1.595 7.803 3.654h.117V25.28zm-7.005 22.711c0-.567-.057-1.251-.173-1.825-.626-2.729-2.845-4.952-6.037-4.952-4.502 0-7.012 3.988-7.012 9.172 0 5.066 2.51 8.773 6.957 8.773 2.842 0 5.352-1.938 6.035-4.96.173-.624.23-1.31.23-2.05zm11.962-11.565h7.068v27.748h-7.068zm12.02 8.947c0-3.761-.056-6.442-.223-8.947h6.096l.224 5.293h.23c1.368-3.926 4.613-5.293 7.582-5.293.68 0 1.079-.114 1.646 0v6.156a9.6 9.6 0 0 0-2.047-.228c-3.365 0-5.645 2.164-6.27 5.293-.11.629-.226 1.372-.226 2.171v14.356h-7.012zm18.807-8.947h7.06v27.748h-7.06z"/><path fill="url(#a)" d="M165.968 791.833c-3.402-1.972-14.49-8.307-14.49-8.307-4.163-1.716-7.352.374-8.385 1.906a1.3 1.3 0 0 0-.122.184l-.136.233-.703 1.148c-.3.474-.634.962-1.017 1.463-.342.438-.722.872-1.135 1.291-2.672 2.701-6.949 4.598-14.074 1.209-4.309-2.459-14.329-8.189-14.329-8.189l-.002-.003c-4.123-2.357-7.335-4.191-7.335-4.191l3.795-4.66c1.596-1.521 4.598-4.016 9.242-1.912 0 0 12.816 7.421 12.866 7.443 10.957 6.013 16.365.267 18.754-3.563.083-.118.152-.249.225-.365l.006-.005c.028-.046.049-.09.072-.134l.273-.443c1.162-1.765 3.001-2.905 5.189-2.853 1.208.024 2.028.418 3.22 1.081l12.401 7.192c.008.004.014.009.027.011 11.092 6.086 16.59-.035 18.939-3.864.182-.332.392-.647.602-.943 1.162-1.576 2.767-2.609 4.803-2.558 1.344.027 2.854.834 3.076.982l14.869 8.579s-1.521 2.294-4.649 5.871c-2.797 3.191-5.772 1.747-8.135.572-.993-.49-8.171-4.559-8.171-4.559-3.932-1.622-6.995.148-8.197 1.637a4 4 0 0 0-.313.448l-.277.485c-.431.727-.945 1.547-1.578 2.357-.339.439-.717.878-1.132 1.293-1.653 1.67-3.914 3.031-7.079 3.032-1.987 0-4.328-.536-7.1-1.868" transform="matrix(1.25 0 0 -1.25 -44.5 992.626)"/></svg>